Coordinates
version=1
nRows=19
nColumns=36
inDegrees=yes

Units are S.I. units (second, meters, Newtons, ...)
If the header above contains a line with 'inDegrees', this indicates whether rotational values are in degrees (yes) or radians (no).

endheader
time	pelvis_tilt	pelvis_list	pelvis_rotation	pelvis_tx	pelvis_ty	pelvis_tz	hip_flexion_r	hip_adduction_r	hip_rotation_r	knee_angle_r	knee_angle_r_beta	ankle_angle_r	subtalar_angle_r	mtp_angle_r	hip_flexion_l	hip_adduction_l	hip_rotation_l	knee_angle_l	knee_angle_l_beta	ankle_angle_l	subtalar_angle_l	mtp_angle_l	lumbar_extension	lumbar_bending	lumbar_rotation	arm_flex_r	arm_add_r	arm_rot_r	elbow_flex_r	pro_sup_r	arm_flex_l	arm_add_l	arm_rot_l	elbow_flex_l	pro_sup_l
      4.90000000	     -4.17269221	     -0.02999991	      2.44330336	      0.47061173	      0.98883740	      0.00601376	      2.72681229	     -7.85336050	     -6.05834079	     12.80651700	      0.22351589	      5.76820168	     -6.46799113	     -7.49999987	      6.36755140	     -6.40809533	      0.80644757	     15.45546612	      0.26974877	      4.01866760	     -3.97322165	     -7.49999987	     -8.99450643	     -1.19327085	      0.84877436	    219.58921784	   -167.35788516	    201.48784432	    100.59440794	     88.25577186	     38.32019177	     -6.22438942	     22.33360424	    108.16831415	     69.37018456
      4.90416670	     -4.13842937	     -0.07168504	      2.47246518	      0.46987292	      0.98834896	      0.00683865	      2.58549400	     -7.78072081	     -6.17653062	     12.61710809	      0.22021008	      6.09941848	     -6.15583172	     -7.49999987	      6.28174230	     -6.43804866	      0.93379652	     15.39924808	      0.26876758	      4.12638679	     -4.13759022	     -7.49999987	     -9.13340141	     -1.14655019	      0.99810558	    219.50603896	   -167.27075483	    201.32006313	    100.69998181	     88.47287859	     38.18226846	     -6.25850881	     22.44137965	    108.23451663	     69.61779951
      4.90833330	     -4.22653853	     -0.06610091	      2.58675360	      0.46962218	      0.98611979	      0.00577055	      2.60134618	     -7.82403370	     -6.30172163	     12.55900086	      0.21919592	      6.45164257	     -5.83217507	     -7.49999987	      6.43479809	     -6.40990710	      1.00643969	     15.45357990	      0.26971585	      4.28433978	     -4.16553704	     -7.49999987	     -9.07498724	     -1.01865944	      0.74176288	    219.56237904	   -167.46497921	    201.32618050	    100.41635147	     92.34830548	     37.70132501	     -6.47516550	     21.91826276	    108.49936465	     71.79873802
      4.91250000	     -4.24631805	     -0.03466315	      2.59035705	      0.47068260	      0.98780211	      0.00495455	      2.50194355	     -7.87394923	     -6.20129032	     12.38532429	      0.21616469	      6.53393581	     -5.85194737	     -7.49999987	      6.37423486	     -6.35474426	      0.98567251	     15.32024336	      0.26738869	      4.40926924	     -4.09752547	     -7.49999987	     -9.10059177	     -1.10337894	      1.13556580	    218.85535102	   -167.05387975	    200.87401345	    100.89459324	     91.09363529	     37.50203363	     -6.26101952	     22.29123922	    108.15184639	     71.18529022
      4.91666670	     -4.19880414	     -0.00931093	      2.73259168	      0.47010072	      0.98743275	      0.00496991	      2.24726030	     -7.93650696	     -6.35454789	     12.14578719	      0.21198398	      6.80960129	     -5.43826570	     -7.49999987	      6.29519009	     -6.27714399	      1.13012955	     15.22785200	      0.26577616	      4.57622219	     -4.02366015	     -7.49999987	     -9.21274306	     -1.05402880	      1.09287105	    218.45499948	   -166.95920847	    200.72104708	    101.01322529	     91.23252876	     37.20055525	     -6.34270183	     22.34750013	    107.88918755	     71.29289623
      4.92083330	     -4.18804857	     -0.00756569	      2.76690067	      0.47047778	      0.98809605	      0.00491107	      2.07456891	     -7.95526387	     -6.34285477	     11.91450886	      0.20794741	      6.92104626	     -5.18283381	     -7.49999987	      6.17421219	     -6.24960138	      1.26531082	     15.02192750	      0.26218209	      4.63417719	     -3.88221927	     -7.49999987	     -9.26282428	     -1.06459137	      1.16663481	    217.96901265	   -166.95410005	    200.48785788	    100.91671936	     91.15723687	     36.82496508	     -6.44046974	     22.45457477	    107.57491591	     71.13374129
      4.92500000	     -4.18666281	      0.02676877	      2.84970025	      0.47146634	      0.98477435	      0.00297180	      1.87686814	     -8.04799194	     -6.38744830	     11.67262039	      0.20372566	      7.11759299	     -4.99771103	     -7.49999987	      6.06114256	     -6.16222470	      1.22562276	     14.87518480	      0.25962095	      4.89283795	     -3.63823685	     -7.49999987	     -9.23915302	     -0.95593491	      0.94060961	    217.85229046	   -167.10388032	    200.55787804	    100.69679622	     92.30643151	     36.14606645	     -6.66744558	     22.08159243	    107.57407005	     71.83219503
      4.92916670	     -4.12258023	     -0.01161224	      2.89021018	      0.47005864	      0.98236968	      0.00396194	      1.72872037	     -7.98828314	     -6.33640383	     11.56728368	      0.20188719	      7.36813224	     -5.09095452	     -7.49999987	      5.99089534	     -6.19400371	      1.35590738	     14.86364334	      0.25941952	      5.15044161	     -3.69210250	     -7.49999987	     -9.35515038	     -1.05144099	      1.37789457	    217.49338187	   -166.89230810	    199.97270040	    100.84671935	     90.92626677	     36.28697718	     -6.43747413	     22.51594500	    107.07760929	     70.89351266
      4.93333330	     -4.06519718	     -0.01779137	      2.93014331	      0.47055201	      0.98216287	      0.00306873	      1.60462809	     -8.00192101	     -6.37660216	     11.54318380	      0.20146656	      7.68290133	     -5.04578086	     -7.49999987	      5.92194362	     -6.18626345	      1.35200147	     14.87848362	      0.25967853	      5.49785646	     -3.64065347	     -7.49999987	     -9.44031612	     -1.05741342	      1.39073425	    217.28893837	   -166.93626706	    199.88200332	    100.66794648	     90.27128331	     35.89968206	     -6.55996611	     22.43650702	    106.92294955	     70.64317540
      4.93750000	     -4.06626295	     -0.03860344	      3.01191656	      0.47020574	      0.98017942	      0.00344319	      1.62636207	     -8.00167237	     -6.42279427	     11.64201223	      0.20319144	      8.09838334	     -5.09758326	     -7.49999987	      5.99777381	     -6.19919995	      1.34848724	     15.02336514	      0.26220719	      5.85089177	     -3.67236594	     -7.49999987	     -9.43204995	     -1.03088742	      1.25066465	    217.19014175	   -167.18707356	    199.75119718	    100.23239618	     92.89425511	     35.46996695	     -6.78972738	     22.15950497	    106.85753682	     71.90325787
      4.94166670	     -3.98951395	     -0.09025000	      3.03646887	      0.46893146	      0.97738522	      0.00553594	      1.59940671	     -7.85179711	     -6.41987864	     11.74461368	      0.20498218	      8.29252613	     -5.56625003	     -7.49999987	      5.97433487	     -6.30958023	      1.45352218	     15.05492079	      0.26275794	      6.16647207	     -3.88673898	     -7.49999987	     -9.49572250	     -1.07671523	      1.64984893	    217.09443867	   -167.22814097	    199.54151237	    100.02935920	     92.10281701	     35.61305279	     -6.90003146	     22.51031224	    106.54564418	     71.36260087
      4.94583330	     -3.94092382	     -0.08674560	      3.02255330	      0.46967085	      0.98063280	      0.00542822	      1.50490025	     -7.76686070	     -6.32573402	     11.65203849	      0.20336644	      8.32531401	     -5.88276379	     -7.49999987	      5.90733340	     -6.36748930	      1.56605692	     14.96477112	      0.26118453	      6.33317937	     -3.90876764	     -7.49999987	     -9.51964158	     -1.12590925	      1.92393866	    216.70836733	   -167.24568431	    199.57198099	     99.70731392	     91.94583157	     35.37060334	     -7.13218410	     22.81319322	    106.18189571	     71.05534559
      4.95000000	     -3.83328447	     -0.09998136	      3.06630267	      0.46882822	      0.98368355	      0.00491368	      1.32363169	     -7.62860348	     -6.21714673	     11.49551828	      0.20063464	      8.26327426	     -6.06840708	     -7.49999987	      5.72176997	     -6.39351682	      1.72475379	     14.75449006	      0.25751443	      6.40751277	     -4.05019938	     -7.49999987	     -9.71311796	     -1.10144196	      2.10190067	    216.11225652	   -167.21781922	    199.52850538	     99.30117478	     90.97089466	     35.00289399	     -7.13084610	     22.98355690	    105.63891505	     70.41885343
      4.95416670	     -3.70689665	     -0.15270385	      3.16854393	      0.46895991	      0.97974187	      0.00369733	      1.17676096	     -7.52511733	     -6.29128587	     11.50521703	      0.20080392	      8.16504728	     -6.35248494	     -7.49999987	      5.55445821	     -6.40893796	      1.94707845	     14.61856967	      0.25514217	      6.47927976	     -4.20279551	     -7.49999987	     -9.93644370	     -1.08211305	      2.27176962	    215.47488978	   -167.01334475	    199.25469779	     99.43039082	     90.17771176	     34.85436051	     -7.05768785	     23.32871034	    105.21221329	     70.26652827
      4.95833330	     -3.60619210	     -0.21411686	      3.13838453	      0.46952628	      0.98074965	      0.00304505	      1.07686917	     -7.41159233	     -5.99301995	     11.57288213	      0.20198490	      8.03810461	     -6.84734433	     -7.49999987	      5.36107951	     -6.44367137	      1.89280151	     14.48862180	      0.25287415	      6.71163425	     -3.94177303	     -7.49999987	    -10.03057319	     -0.88522940	      1.68391733	    215.41046660	   -167.38892176	    199.78382993	     98.48140958	     92.89294064	     33.83233494	     -7.46263249	     22.54157109	    105.20225311	     71.04900580
      4.96250000	     -3.41882769	     -0.23109716	      3.18403533	      0.47042211	      0.98078949	      0.00127611	      0.81175195	     -7.42321432	     -5.88296916	     11.61361113	      0.20269575	      8.00205427	     -7.10170682	     -7.49999987	      5.04156532	     -6.39044515	      1.98647574	     14.33605577	      0.25021137	      6.85037619	     -3.90686717	     -7.49999987	    -10.28781137	     -0.85243080	      1.73848577	    214.84209451	   -167.09953847	    199.71467631	     98.51229046	     91.31345260	     33.49436289	     -7.29546637	     22.74417209	    104.76668801	     70.39906658
      4.96666670	     -3.23500420	     -0.25884386	      3.32084217	      0.47170772	      0.98028145	      0.00083306	      0.47034979	     -7.40635535	     -5.83141330	     11.57750180	      0.20206553	      8.03113639	     -7.38754467	     -7.49999987	      4.73174292	     -6.33697158	      2.12259510	     14.23997887	      0.24853452	      7.04934783	     -3.98558277	     -7.49999987	    -10.47838957	     -0.80783335	      1.78431355	    214.23238881	   -167.00447106	    199.54846488	     98.49350070	     90.60340735	     33.08340396	     -7.25176777	     23.07220935	    104.43138835	     70.00794340
      4.97083330	     -3.05579377	     -0.26070235	      3.31931637	      0.47087065	      0.98024014	      0.00082033	      0.25765584	     -7.42643242	     -5.67729813	     11.64774712	      0.20329154	      8.06251364	     -7.63273633	     -7.49999987	      4.43421412	     -6.27632742	      2.24719369	     14.11039077	      0.24627278	      7.09329176	     -4.11024881	     -7.49999987	    -10.73325571	     -0.81067527	      1.93355665	    213.61439946	   -166.83691517	    199.24006116	     98.53389174	     90.02312402	     32.60016381	     -7.10096035	     23.32409664	    104.03182415	     69.64106574
      4.97500000	     -2.87643108	     -0.30390978	      3.41102862	      0.47161853	      0.97825746	      0.00032359	      0.07411626	     -7.37472662	     -5.42358767	     11.80550510	      0.20604493	      8.29149272	     -7.86266234	     -7.49999987	      4.23781852	     -6.28631544	      2.25681917	     14.25428460	      0.24878420	      7.44760077	     -3.99478966	     -7.49999987	    -10.89436920	     -0.76061312	      1.57189484	    213.66138664	   -167.18472595	    199.42325202	     97.51839468	     90.23903294	     31.94599190	     -7.34377938	     22.98757715	    103.92548405	     69.55391270
